<svg xmlns="http://www.w3.org/2000/svg" viewBox="0 0 900 620"><style>
  .title  { font-family: 'Segoe UI', Arial, sans-serif; font-size: 18px; font-weight: 700; fill: #1F2937; }
  .sub    { font-family: 'Segoe UI', Arial, sans-serif; font-size: 13px; fill: #6B7280; }
  .label  { font-family: 'Segoe UI', Arial, sans-serif; font-size: 12px; font-weight: 600; fill: #fff; }
  .label2 { font-family: 'Segoe UI', Arial, sans-serif; font-size: 11px; fill: #1F2937; }
  .tag    { font-family: 'Segoe UI', Arial, sans-serif; font-size: 10px; fill: #6B7280; }
  .layer  { font-family: 'Segoe UI', Arial, sans-serif; font-size: 12px; font-weight: 700; fill: #fff; }
  .arrow  { stroke: #94A3B8; stroke-width: 2; fill: none; marker-end: url(#arrow); }
  .dash   { stroke: #CBD5E1; stroke-width: 1.5; fill: none; stroke-dasharray: 6,3; }
</style><marker id="arrow" markerWidth="10" markerHeight="8" refX="9" refY="4" orient="auto"><path d="M0,0 L10,4 L0,8 Z" fill="#94A3B8"/></marker><rect width="900" height="620" fill="#FAFCFF"/><text x="450.0" y="32" text-anchor="middle" class="title">Arsitektur Smart Charging Hub — Data-Centric AI</text><rect x="20" y="60" width="860" height="76" rx="10" fill="#1A73E8" opacity="0.07"/><rect x="20" y="60" width="860" height="28" rx="10" fill="#1A73E8" opacity="0.15"/><text x="36" y="79" class="layer" fill="#1A73E8" font-size="11">CLOUD LAYER</text><rect x="20" y="144" width="860" height="76" rx="10" fill="#2E7D32" opacity="0.07"/><rect x="20" y="144" width="860" height="28" rx="10" fill="#2E7D32" opacity="0.15"/><text x="36" y="163" class="layer" fill="#2E7D32" font-size="11">EDGE LAYER</text><rect x="20" y="228" width="860" height="76" rx="10" fill="#E65100" opacity="0.07"/><rect x="20" y="228" width="860" height="28" rx="10" fill="#E65100" opacity="0.15"/><text x="36" y="247" class="layer" fill="#E65100" font-size="11">HARDWARE LAYER</text><rect x="50" y="262" width="140" height="60" rx="8" ry="8" fill="#E6510020" stroke="#CBD5E1" stroke-width="1.5" opacity="1"/><text x="120.0" y="286.0" text-anchor="middle" class="label2" fill="#1F2937">PV Array
5,5 kWp</text><circle cx="70" cy="277" r="6" fill="#FFFFFF" stroke="#CBD5E1" stroke-width="1"/><rect x="220" y="262" width="140" height="60" rx="8" ry="8" fill="#E6510020" stroke="#CBD5E1" stroke-width="1.5" opacity="1"/><text x="290.0" y="286.0" text-anchor="middle" class="label2" fill="#1F2937">BESS LiFePO₄
10 kWh</text><circle cx="240" cy="277" r="6" fill="#FFFFFF" stroke="#CBD5E1" stroke-width="1"/><rect x="390" y="262" width="140" height="60" rx="8" ry="8" fill="#E6510020" stroke="#CBD5E1" stroke-width="1.5" opacity="1"/><text x="460.0" y="286.0" text-anchor="middle" class="label2" fill="#1F2937">Hybrid Inverter
5 kW</text><circle cx="410" cy="277" r="6" fill="#FFFFFF" stroke="#CBD5E1" stroke-width="1"/><rect x="560" y="262" width="140" height="60" rx="8" ry="8" fill="#00897B20" stroke="#CBD5E1" stroke-width="1.5" opacity="1"/><text x="630.0" y="286.0" text-anchor="middle" class="label2" fill="#1F2937">SPKLU AC 22 kW
(Mitra)</text><circle cx="580" cy="277" r="6" fill="#FFFFFF" stroke="#CBD5E1" stroke-width="1"/><rect x="730" y="262" width="140" height="60" rx="8" ry="8" fill="#6B728020" stroke="#CBD5E1" stroke-width="1.5" opacity="1"/><text x="800.0" y="286.0" text-anchor="middle" class="label2" fill="#1F2937">Grid
3 Fasa PLN</text><circle cx="750" cy="277" r="6" fill="#FFFFFF" stroke="#CBD5E1" stroke-width="1"/><path d="M120,254 L120,250" class="arrow"/><path d="M290,254 L290,250" class="arrow"/><path d="M460,254 L460,250" class="arrow"/><rect x="100" y="178" width="700" height="68" rx="10" ry="10" fill="#fff" stroke="#2E7D32" stroke-width="1.5" opacity="1"/><text x="110" y="196" class="label" fill="#2E7D32" font-size="11">IoT Gateway — Edge Inference Node</text><rect x="120" y="202" width="145" height="40" rx="6" ry="6" fill="#2E7D3215" stroke="#CBD5E1" stroke-width="1.5" opacity="1"/><text x="192.5" y="216.0" text-anchor="middle" class="label2" fill="#2E7D32">Data Integrity
Layer</text><text x="192.5" y="234.0" text-anchor="middle" class="sub" fill="#6B7280">DQ, anomaly</text><rect x="290" y="202" width="145" height="40" rx="6" ry="6" fill="#2E7D3215" stroke="#CBD5E1" stroke-width="1.5" opacity="1"/><text x="362.5" y="216.0" text-anchor="middle" class="label2" fill="#2E7D32">Hybrid Ensemble
Forecasting</text><text x="362.5" y="234.0" text-anchor="middle" class="sub" fill="#6B7280">LSTM+TCN+LGBM</text><rect x="460" y="202" width="145" height="40" rx="6" ry="6" fill="#2E7D3215" stroke="#CBD5E1" stroke-width="1.5" opacity="1"/><text x="532.5" y="216.0" text-anchor="middle" class="label2" fill="#2E7D32">Drift-Adaptive
Retraining</text><text x="532.5" y="234.0" text-anchor="middle" class="sub" fill="#6B7280">monitor→trigger</text><rect x="630" y="202" width="145" height="40" rx="6" ry="6" fill="#7C4DFF15" stroke="#CBD5E1" stroke-width="1.5" opacity="1"/><text x="702.5" y="216.0" text-anchor="middle" class="label2" fill="#7C4DFF">CPTS-aware
EMS</text><text x="702.5" y="234.0" text-anchor="middle" class="sub" fill="#6B7280">MPC+trust</text><line x1="265" y1="222" x2="290" y2="222" class="arrow"/><line x1="435" y1="222" x2="460" y2="222" class="arrow"/><line x1="605" y1="222" x2="630" y2="222" class="arrow"/><rect x="80" y="94" width="140" height="38" rx="6" ry="6" fill="#1A73E815" stroke="#CBD5E1" stroke-width="1.5" opacity="1"/><text x="150.0" y="107.0" text-anchor="middle" class="label2" fill="#1A73E8">Backend API</text><text x="150.0" y="125.0" text-anchor="middle" class="sub" fill="#6B7280">FastAPI</text><rect x="260" y="94" width="140" height="38" rx="6" ry="6" fill="#1A73E815" stroke="#CBD5E1" stroke-width="1.5" opacity="1"/><text x="330.0" y="107.0" text-anchor="middle" class="label2" fill="#1A73E8">Time-Series DB</text><text x="330.0" y="125.0" text-anchor="middle" class="sub" fill="#6B7280">TimescaleDB</text><rect x="440" y="94" width="140" height="38" rx="6" ry="6" fill="#1A73E815" stroke="#CBD5E1" stroke-width="1.5" opacity="1"/><text x="510.0" y="107.0" text-anchor="middle" class="label2" fill="#1A73E8">Dashboard</text><text x="510.0" y="125.0" text-anchor="middle" class="sub" fill="#6B7280">Grafana</text><rect x="620" y="94" width="140" height="38" rx="6" ry="6" fill="#1A73E815" stroke="#CBD5E1" stroke-width="1.5" opacity="1"/><text x="690.0" y="107.0" text-anchor="middle" class="label2" fill="#1A73E8">MQTT Broker</text><text x="690.0" y="125.0" text-anchor="middle" class="sub" fill="#6B7280">EMQX</text><path d="M460,172 L460,136" class="arrow"/><text x="120" y="246" text-anchor="middle" class="tag">Modbus RTU/TCP</text><text x="290" y="246" text-anchor="middle" class="tag">Modbus/CAN</text><text x="460" y="246" text-anchor="middle" class="tag">Modbus</text><text x="770" y="246" text-anchor="middle" class="tag">Grid -&gt;</text><rect x="30" y="570" width="12" height="12" rx="2" fill="#1A73E8" opacity="0.5"/><text x="48" y="581" class="tag">Cloud / Internet</text><rect x="180" y="570" width="12" height="12" rx="2" fill="#2E7D32" opacity="0.5"/><text x="198" y="581" class="tag">Edge / On-site</text><rect x="330" y="570" width="12" height="12" rx="2" fill="#E65100" opacity="0.5"/><text x="348" y="581" class="tag">Hardware / Power</text></svg>