<svg xmlns="http://www.w3.org/2000/svg" viewBox="0 0 800 380"><style>
  .title  { font-family: 'Segoe UI', Arial, sans-serif; font-size: 18px; font-weight: 700; fill: #1F2937; }
  .sub    { font-family: 'Segoe UI', Arial, sans-serif; font-size: 13px; fill: #6B7280; }
  .label  { font-family: 'Segoe UI', Arial, sans-serif; font-size: 12px; font-weight: 600; fill: #fff; }
  .label2 { font-family: 'Segoe UI', Arial, sans-serif; font-size: 11px; fill: #1F2937; }
  .tag    { font-family: 'Segoe UI', Arial, sans-serif; font-size: 10px; fill: #6B7280; }
  .layer  { font-family: 'Segoe UI', Arial, sans-serif; font-size: 12px; font-weight: 700; fill: #fff; }
  .arrow  { stroke: #94A3B8; stroke-width: 2; fill: none; marker-end: url(#arrow); }
  .dash   { stroke: #CBD5E1; stroke-width: 1.5; fill: none; stroke-dasharray: 6,3; }
</style><marker id="arrow" markerWidth="10" markerHeight="8" refX="9" refY="4" orient="auto"><path d="M0,0 L10,4 L0,8 Z" fill="#94A3B8"/></marker><rect width="800" height="380" fill="#FAFCFF"/><text x="400.0" y="30" text-anchor="middle" class="title">Cyber-Physical Trust Score (CPTS) — Mekanisme Integrasi</text><rect x="60" y="80" width="200" height="130" rx="10" ry="10" fill="#DC262612" stroke="#DC2626" stroke-width="1.5" opacity="1"/><rect x="60" y="80" width="200" height="28" rx="10" fill="#DC2626" opacity="0.85"/><text x="160.0" y="98" text-anchor="middle" class="label" font-size="11">Anomaly</text><text x="160.0" y="112" text-anchor="middle" class="label" font-size="11">Score</text><text x="75" y="126" class="tag" font-size="9">• Autoencoder</text><text x="75" y="146" class="tag" font-size="9">• Isolation Forest</text><text x="75" y="166" class="tag" font-size="9">• Statistical</text><rect x="290" y="80" width="200" height="130" rx="10" ry="10" fill="#F59E0B12" stroke="#F59E0B" stroke-width="1.5" opacity="1"/><rect x="290" y="80" width="200" height="28" rx="10" fill="#F59E0B" opacity="0.85"/><text x="390.0" y="98" text-anchor="middle" class="label" font-size="11">Data Quality</text><text x="390.0" y="112" text-anchor="middle" class="label" font-size="11">Metrics</text><text x="305" y="126" class="tag" font-size="9">• Completeness</text><text x="305" y="146" class="tag" font-size="9">• Accuracy</text><text x="305" y="166" class="tag" font-size="9">• Timeliness</text><rect x="520" y="80" width="200" height="130" rx="10" ry="10" fill="#1A73E812" stroke="#1A73E8" stroke-width="1.5" opacity="1"/><rect x="520" y="80" width="200" height="28" rx="10" fill="#1A73E8" opacity="0.85"/><text x="620.0" y="98" text-anchor="middle" class="label" font-size="11">Forecast</text><text x="620.0" y="112" text-anchor="middle" class="label" font-size="11">Uncertainty</text><text x="535" y="126" class="tag" font-size="9">• Prediction interval</text><text x="535" y="146" class="tag" font-size="9">• Ensemble variance</text><text x="535" y="166" class="tag" font-size="9">• Past error rate</text><rect x="280" y="240" width="200" height="50" rx="10" ry="10" fill="#7C4DFF15" stroke="#7C4DFF" stroke-width="1.5" opacity="1"/><text x="380.0" y="260" text-anchor="middle" class="label" fill="#7C4DFF">CPTS = f(α·A + β·DQ + γ·U)</text><text x="380.0" y="278" text-anchor="middle" class="tag" fill="#7C4DFF">Bobot adaptif berdasarkan konteks</text><line x1="160" y1="210" x2="160" y2="240" class="arrow"/><line x1="390" y1="210" x2="390" y2="240" class="arrow"/><line x1="620" y1="210" x2="620" y2="240" class="arrow"/><rect x="560" y="240" width="170" height="50" rx="10" ry="10" fill="#00897B15" stroke="#00897B" stroke-width="1.5" opacity="1"/><text x="645.0" y="260" text-anchor="middle" class="label" fill="#00897B">EMS Objective</text><text x="645.0" y="278" text-anchor="middle" class="tag" fill="#00897B">min J = J₀ + λ · CPTS</text><line x1="480" y1="265" x2="560" y2="265" class="arrow"/><rect x="60" y="320" width="150" height="36" rx="6" ry="6" fill="#2E7D3215" stroke="#CBD5E1" stroke-width="1.5" opacity="1"/><text x="135.0" y="332.0" text-anchor="middle" class="label2" fill="#2E7D32">Charge/Discharge
Rate Limit</text><rect x="240" y="320" width="150" height="36" rx="6" ry="6" fill="#E6510015" stroke="#CBD5E1" stroke-width="1.5" opacity="1"/><text x="315.0" y="332.0" text-anchor="middle" class="label2" fill="#E65100">PV Curtailing
Threshold</text><rect x="420" y="320" width="150" height="36" rx="6" ry="6" fill="#1A73E815" stroke="#CBD5E1" stroke-width="1.5" opacity="1"/><text x="495.0" y="332.0" text-anchor="middle" class="label2" fill="#1A73E8">Charger Scheduling
Priority</text><rect x="600" y="320" width="150" height="36" rx="6" ry="6" fill="#6B728015" stroke="#CBD5E1" stroke-width="1.5" opacity="1"/><text x="675.0" y="332.0" text-anchor="middle" class="label2" fill="#6B7280">Grid Import
Limit</text><line x1="380" y1="290" x2="380" y2="316" class="arrow"/><line x1="480" y1="290" x2="480" y2="316" class="arrow"/></svg>