<svg xmlns="http://www.w3.org/2000/svg" viewBox="0 0 1100 520"><style>
  .title  { font-family: 'Segoe UI', Arial, sans-serif; font-size: 18px; font-weight: 700; fill: #1F2937; }
  .sub    { font-family: 'Segoe UI', Arial, sans-serif; font-size: 13px; fill: #6B7280; }
  .label  { font-family: 'Segoe UI', Arial, sans-serif; font-size: 12px; font-weight: 600; fill: #fff; }
  .label2 { font-family: 'Segoe UI', Arial, sans-serif; font-size: 11px; fill: #1F2937; }
  .tag    { font-family: 'Segoe UI', Arial, sans-serif; font-size: 10px; fill: #6B7280; }
  .layer  { font-family: 'Segoe UI', Arial, sans-serif; font-size: 12px; font-weight: 700; fill: #fff; }
  .arrow  { stroke: #94A3B8; stroke-width: 2; fill: none; marker-end: url(#arrow); }
  .dash   { stroke: #CBD5E1; stroke-width: 1.5; fill: none; stroke-dasharray: 6,3; }
</style><rect width="1100" height="520" fill="#FAFCFF"/><text x="550.0" y="30" text-anchor="middle" class="title">Metodologi Riset — Alur Kerja 24 Bulan</text><line x1="160" y1="80" x2="1040" y2="80" stroke="#CBD5E1" stroke-width="2"/><line x1="160" y1="74" x2="160" y2="86" stroke="#CBD5E1" stroke-width="2"/><line x1="1040" y1="74" x2="1040" y2="86" stroke="#CBD5E1" stroke-width="2"/><line x1="160.0" y1="76" x2="160.0" y2="84" stroke="#CBD5E1" stroke-width="1.5"/><text x="160.0" y="98" text-anchor="middle" class="tag">B0</text><line x1="270.0" y1="76" x2="270.0" y2="84" stroke="#CBD5E1" stroke-width="1.5"/><text x="270.0" y="98" text-anchor="middle" class="tag">B3</text><line x1="380.0" y1="76" x2="380.0" y2="84" stroke="#CBD5E1" stroke-width="1.5"/><text x="380.0" y="98" text-anchor="middle" class="tag">B6</text><line x1="490.0" y1="76" x2="490.0" y2="84" stroke="#CBD5E1" stroke-width="1.5"/><text x="490.0" y="98" text-anchor="middle" class="tag">B9</text><line x1="600.0" y1="76" x2="600.0" y2="84" stroke="#CBD5E1" stroke-width="1.5"/><text x="600.0" y="98" text-anchor="middle" class="tag">B12</text><line x1="710.0" y1="76" x2="710.0" y2="84" stroke="#CBD5E1" stroke-width="1.5"/><text x="710.0" y="98" text-anchor="middle" class="tag">B15</text><line x1="820.0" y1="76" x2="820.0" y2="84" stroke="#CBD5E1" stroke-width="1.5"/><text x="820.0" y="98" text-anchor="middle" class="tag">B18</text><line x1="930.0" y1="76" x2="930.0" y2="84" stroke="#CBD5E1" stroke-width="1.5"/><text x="930.0" y="98" text-anchor="middle" class="tag">B21</text><line x1="1040.0" y1="76" x2="1040.0" y2="84" stroke="#CBD5E1" stroke-width="1.5"/><text x="1040.0" y="98" text-anchor="middle" class="tag">B24</text><text x="340" y="116" class="sub" font-size="11">Tahun I</text><text x="780.0" y="116" class="sub" font-size="11">Tahun II</text><line x1="600.0" y1="70" x2="600.0" y2="450" stroke="#CBD5E1" stroke-width="1" stroke-dasharray="4,4"/><rect x="196.66666666666666" y="180" width="293.3333333333333" height="28" rx="6" ry="6" fill="#2E7D3220" stroke="#2E7D32" stroke-width="1.5" opacity="1"/><rect x="196.66666666666666" y="180" width="293.3333333333333" height="28" rx="6" fill="#2E7D32" opacity="0.15"/><text x="204.66666666666666" y="198" class="label2" fill="#2E7D32" font-size="11">WP1: Data Integrity Layer</text><text x="495.0" y="198" class="tag" font-size="9">8 bln</text><rect x="270.0" y="230" width="293.3333333333333" height="28" rx="6" ry="6" fill="#1A73E820" stroke="#1A73E8" stroke-width="1.5" opacity="1"/><rect x="270.0" y="230" width="293.3333333333333" height="28" rx="6" fill="#1A73E8" opacity="0.15"/><text x="278.0" y="248" class="label2" fill="#1A73E8" font-size="11">WP2: Digital Twin &amp; Simulasi</text><text x="568.3333333333333" y="248" class="tag" font-size="9">8 bln</text><rect x="343.33333333333337" y="180" width="293.3333333333333" height="28" rx="6" ry="6" fill="#1565C020" stroke="#1565C0" stroke-width="1.5" opacity="1"/><rect x="343.33333333333337" y="180" width="293.3333333333333" height="28" rx="6" fill="#1565C0" opacity="0.15"/><text x="351.33333333333337" y="198" class="label2" fill="#1565C0" font-size="11">WP3: Hybrid Ensemble Forecasting</text><text x="641.6666666666667" y="198" class="tag" font-size="9">8 bln</text><rect x="343.33333333333337" y="230" width="293.3333333333333" height="28" rx="6" ry="6" fill="#7C4DFF20" stroke="#7C4DFF" stroke-width="1.5" opacity="1"/><rect x="343.33333333333337" y="230" width="293.3333333333333" height="28" rx="6" fill="#7C4DFF" opacity="0.15"/><text x="351.33333333333337" y="248" class="label2" fill="#7C4DFF" font-size="11">WP4: Drift-Adaptive Retraining</text><text x="641.6666666666667" y="248" class="tag" font-size="9">8 bln</text><rect x="490.0" y="180" width="293.3333333333333" height="28" rx="6" ry="6" fill="#00897B20" stroke="#00897B" stroke-width="1.5" opacity="1"/><rect x="490.0" y="180" width="293.3333333333333" height="28" rx="6" fill="#00897B" opacity="0.15"/><text x="498.0" y="198" class="label2" fill="#00897B" font-size="11">WP5: CPTS-aware EMS</text><text x="788.3333333333333" y="198" class="tag" font-size="9">8 bln</text><rect x="636.6666666666666" y="180" width="366.6666666666667" height="28" rx="6" ry="6" fill="#E6510020" stroke="#E65100" stroke-width="1.5" opacity="1"/><rect x="636.6666666666666" y="180" width="366.6666666666667" height="28" rx="6" fill="#E65100" opacity="0.15"/><text x="644.6666666666666" y="198" class="label2" fill="#E65100" font-size="11">WP6: Integrasi &amp; Validasi Pilot</text><text x="1008.3333333333333" y="198" class="tag" font-size="9">10 bln</text><rect x="820.0" y="230" width="220.0" height="28" rx="6" ry="6" fill="#00897B20" stroke="#00897B" stroke-width="1.5" opacity="1"/><rect x="820.0" y="230" width="220.0" height="28" rx="6" fill="#00897B" opacity="0.15"/><text x="828.0" y="248" class="label2" fill="#00897B" font-size="11">WP7: Diseminasi &amp; Luaran</text><text x="1045.0" y="248" class="tag" font-size="9">6 bln</text><circle cx="416.6666666666667" cy="318" r="5" fill="#2E7D32" stroke="#fff" stroke-width="2"/><text x="416.6666666666667" y="334" text-anchor="middle" class="tag" fill="#2E7D32" font-size="9">DQ Layer v1</text><circle cx="563.3333333333333" cy="318" r="5" fill="#1565C0" stroke="#fff" stroke-width="2"/><text x="563.3333333333333" y="334" text-anchor="middle" class="tag" fill="#1565C0" font-size="9">Forecast v1</text><circle cx="600.0" cy="318" r="5" fill="#00897B" stroke="#fff" stroke-width="2"/><text x="600.0" y="334" text-anchor="middle" class="tag" fill="#00897B" font-size="9">EMS Prototype</text><circle cx="746.6666666666666" cy="318" r="5" fill="#E65100" stroke="#fff" stroke-width="2"/><text x="746.6666666666666" y="334" text-anchor="middle" class="tag" fill="#E65100" font-size="9">Pilot Integration</text><circle cx="966.6666666666666" cy="318" r="5" fill="#00897B" stroke="#fff" stroke-width="2"/><text x="966.6666666666666" y="334" text-anchor="middle" class="tag" fill="#00897B" font-size="9">Final Report</text><text x="40" y="460" class="label2">Legend:</text><rect x="40" y="470" width="14" height="14" rx="3" fill="#2E7D32" opacity="0.5"/><text x="60" y="482" class="tag">AI/Software Dev</text><rect x="260" y="470" width="14" height="14" rx="3" fill="#1A73E8" opacity="0.5"/><text x="280" y="482" class="tag">Modeling/Simulasi</text><rect x="480" y="470" width="14" height="14" rx="3" fill="#E65100" opacity="0.5"/><text x="500" y="482" class="tag">Integrasi</text><rect x="700" y="470" width="14" height="14" rx="3" fill="#00897B" opacity="0.5"/><text x="720" y="482" class="tag">Diseminasi</text><text x="40" y="90" class="sub" font-size="11">TKT 3</text><text x="40" y="240" class="sub" font-size="11">TKT 4</text><text x="40" y="380" class="sub" font-size="11">TKT 6</text><path d="M200,470 L300,470" class="arrow"/><text x="320" y="474" class="tag" font-size="9">TKT Progression</text></svg>