<svg xmlns="http://www.w3.org/2000/svg" viewBox="0 0 1100 480"><style>
  .title  { font-family: 'Segoe UI', Arial, sans-serif; font-size: 18px; font-weight: 700; fill: #1F2937; }
  .sub    { font-family: 'Segoe UI', Arial, sans-serif; font-size: 13px; fill: #6B7280; }
  .label  { font-family: 'Segoe UI', Arial, sans-serif; font-size: 12px; font-weight: 600; fill: #fff; }
  .label2 { font-family: 'Segoe UI', Arial, sans-serif; font-size: 11px; fill: #1F2937; }
  .tag    { font-family: 'Segoe UI', Arial, sans-serif; font-size: 10px; fill: #6B7280; }
  .layer  { font-family: 'Segoe UI', Arial, sans-serif; font-size: 12px; font-weight: 700; fill: #fff; }
  .arrow  { stroke: #94A3B8; stroke-width: 2; fill: none; marker-end: url(#arrow); }
  .dash   { stroke: #CBD5E1; stroke-width: 1.5; fill: none; stroke-dasharray: 6,3; }
</style><marker id="arrow" markerWidth="10" markerHeight="8" refX="9" refY="4" orient="auto"><path d="M0,0 L10,4 L0,8 Z" fill="#94A3B8"/></marker><rect width="1100" height="480" fill="#FAFCFF"/><text x="550.0" y="32" text-anchor="middle" class="title">Data-Centric AI Pipeline — Alur Pemrosesan End-to-End</text><rect x="40" y="60" width="140" height="120" rx="8" ry="8" fill="#6B728012" stroke="#6B7280" stroke-width="1.5" opacity="1"/><rect x="40" y="60" width="140" height="28" rx="8" fill="#6B7280" opacity="0.85"/><text x="110.0" y="78" text-anchor="middle" class="label" fill="#fff" font-size="11">Telemetri</text><text x="110.0" y="92" text-anchor="middle" class="label" fill="#fff" font-size="11">Multi-Protokol</text><text x="50" y="102" class="tag" font-size="9">● OCPP 1.6</text><text x="50" y="122" class="tag" font-size="9">○ Modbus RTU</text><text x="50" y="142" class="tag" font-size="9">○ MQTT</text><text x="50" y="162" class="tag" font-size="9">○ CAN Bus</text><rect x="240" y="60" width="140" height="120" rx="8" ry="8" fill="#2E7D3212" stroke="#2E7D32" stroke-width="1.5" opacity="1"/><rect x="240" y="60" width="140" height="28" rx="8" fill="#2E7D32" opacity="0.85"/><text x="310.0" y="78" text-anchor="middle" class="label" fill="#fff" font-size="11">Data Integrity</text><text x="310.0" y="92" text-anchor="middle" class="label" fill="#fff" font-size="11">Layer</text><text x="250" y="102" class="tag" font-size="9">● Packet loss deteksi</text><text x="250" y="122" class="tag" font-size="9">○ Sensor drift koreksi</text><text x="250" y="142" class="tag" font-size="9">○ Clock sync</text><text x="250" y="162" class="tag" font-size="9">○ DQ Scoring (0–1)</text><rect x="470" y="60" width="140" height="120" rx="8" ry="8" fill="#1A73E812" stroke="#1A73E8" stroke-width="1.5" opacity="1"/><rect x="470" y="60" width="140" height="28" rx="8" fill="#1A73E8" opacity="0.85"/><text x="540.0" y="78" text-anchor="middle" class="label" fill="#fff" font-size="11">Hybrid Ensemble</text><text x="540.0" y="92" text-anchor="middle" class="label" fill="#fff" font-size="11">Forecasting</text><text x="480" y="102" class="tag" font-size="9">● LSTM (time-series)</text><text x="480" y="122" class="tag" font-size="9">○ TCN (convolution)</text><text x="480" y="142" class="tag" font-size="9">○ LightGBM (tabular)</text><text x="480" y="162" class="tag" font-size="9">○ Weighted Ensemble</text><rect x="700" y="60" width="140" height="120" rx="8" ry="8" fill="#7C4DFF12" stroke="#7C4DFF" stroke-width="1.5" opacity="1"/><rect x="700" y="60" width="140" height="28" rx="8" fill="#7C4DFF" opacity="0.85"/><text x="770.0" y="78" text-anchor="middle" class="label" fill="#fff" font-size="11">Drift-Adaptive</text><text x="770.0" y="92" text-anchor="middle" class="label" fill="#fff" font-size="11">Retraining</text><text x="710" y="102" class="tag" font-size="9">● Distribution monitor</text><text x="710" y="122" class="tag" font-size="9">○ Drift trigger</text><text x="710" y="142" class="tag" font-size="9">○ Auto retrain</text><text x="710" y="162" class="tag" font-size="9">○ Model versioning</text><rect x="920" y="60" width="140" height="120" rx="8" ry="8" fill="#00897B12" stroke="#00897B" stroke-width="1.5" opacity="1"/><rect x="920" y="60" width="140" height="28" rx="8" fill="#00897B" opacity="0.85"/><text x="990.0" y="78" text-anchor="middle" class="label" fill="#fff" font-size="11">CPTS-aware</text><text x="990.0" y="92" text-anchor="middle" class="label" fill="#fff" font-size="11">EMS</text><text x="930" y="102" class="tag" font-size="9">● CPTS calculation</text><text x="930" y="122" class="tag" font-size="9">○ MPC optimization</text><text x="930" y="142" class="tag" font-size="9">○ Penalty term</text><text x="930" y="162" class="tag" font-size="9">○ Control signal</text><line x1="180" y1="120" x2="200" y2="120" class="arrow"/><line x1="410" y1="120" x2="430" y2="120" class="arrow"/><line x1="640" y1="120" x2="660" y2="120" class="arrow"/><line x1="870" y1="120" x2="890" y2="120" class="arrow"/><rect x="350" y="220" width="400" height="70" rx="10" ry="10" fill="#7C4DFF15" stroke="#7C4DFF" stroke-width="1.5" opacity="1"/><rect x="350" y="220" width="400" height="28" rx="10" fill="#7C4DFF" opacity="0.85"/><text x="550" y="239" text-anchor="middle" class="label">Outputs / Luaran</text><text x="380" y="270" text-anchor="middle" class="tag" font-size="9">Setpoint BMS (charge/discharge)</text><text x="440" y="270" text-anchor="middle" class="tag" font-size="9">PV curtailing decision</text><text x="500" y="270" text-anchor="middle" class="tag" font-size="9">Charger scheduling 22 kW</text><text x="560" y="270" text-anchor="middle" class="tag" font-size="9">Grid import limit signal</text><path d="M460,180 L460,210" class="arrow"/><path d="M550,180 L550,210" class="arrow"/><path d="M770,180 Q850,160 850,100 Q850,80 840,80" class="dash"/><text x="855" y="130" class="tag" font-size="9">Feedback loop</text><text x="40" y="280" class="sub" font-size="11">Data Quality Pipeline:</text><rect x="40" y="300" width="100" height="36" rx="6" ry="6" fill="#DC262630" stroke="#CBD5E1" stroke-width="1.5" opacity="1"/><text x="90.0" y="312.0" text-anchor="middle" class="label2" fill="#DC2626">Raw
Data</text><rect x="160" y="300" width="100" height="36" rx="6" ry="6" fill="#F59E0B30" stroke="#CBD5E1" stroke-width="1.5" opacity="1"/><text x="210.0" y="312.0" text-anchor="middle" class="label2" fill="#F59E0B">Parse &amp;
Validate</text><rect x="280" y="300" width="100" height="36" rx="6" ry="6" fill="#F59E0B30" stroke="#CBD5E1" stroke-width="1.5" opacity="1"/><text x="330.0" y="312.0" text-anchor="middle" class="label2" fill="#F59E0B">DQ Score
0–1</text><rect x="400" y="300" width="100" height="36" rx="6" ry="6" fill="#16A34A30" stroke="#CBD5E1" stroke-width="1.5" opacity="1"/><text x="450.0" y="312.0" text-anchor="middle" class="label2" fill="#16A34A">Impute
Flags</text><rect x="520" y="300" width="100" height="36" rx="6" ry="6" fill="#16A34A30" stroke="#CBD5E1" stroke-width="1.5" opacity="1"/><text x="570.0" y="312.0" text-anchor="middle" class="label2" fill="#16A34A">Trusted
Stream</text><line x1="140" y1="318" x2="160" y2="318" class="arrow"/><line x1="260" y1="318" x2="280" y2="318" class="arrow"/><line x1="380" y1="318" x2="400" y2="318" class="arrow"/><line x1="500" y1="318" x2="520" y2="318" class="arrow"/></svg>